<?xml version="1.0" encoding="utf-8"?>
<!-- Generator: Adobe Illustrator 21.1.0, SVG Export Plug-In . SVG Version: 6.00 Build 0)  -->
<svg version="1.1" id="Layer_1" xmlns="http://www.w3.org/2000/svg" xmlns:xlink="http://www.w3.org/1999/xlink" x="0px" y="0px"
	 viewBox="0 0 119 32.5" style="enable-background:new 0 0 119 32.5;" xml:space="preserve">
<style type="text/css">
	.st0{fill:#FFFFFF;}
</style>
<g>
	<path class="st0" d="M24.3,5.9L24.3,5.9l-8.4,0l-2,0c0,0-0.1,0-0.1,0h-1.1h-0.5h-1.1H7.5c0,0,0,0,0,0c0,0,0,0,0,0c-1.6,0-3,1.3-3,3
		V26c0,1.6,1.3,3,3,3c1.6,0,3-1.3,3-3V11.8h0.7h1.5h0.1c2.4,0,4.2,1.1,4.4,4.2c0,0,0,0,0,0v10.2c0,0.2,0,0.4,0.1,0.6
		c0.1,0.3,0.2,0.6,0.3,0.8c0.5,0.9,1.4,1.4,2.5,1.4c1,0,1.9-0.5,2.4-1.4c0.1-0.1,0.1-0.2,0.2-0.3c0,0,0-0.1,0.1-0.1
		c0-0.1,0.1-0.2,0.1-0.4c0-0.1,0-0.1,0-0.2c0-0.1,0-0.2,0-0.3c0-0.1,0-0.2,0-0.3v-0.1v-10v-0.2c0,0,0-0.1,0-0.1c0-1.5-0.3-2.9-0.7-4
		H24h0.2h0.1c2.4,0,4.2,1.1,4.4,4.2c0,0,0,0,0,0v10.2c0,0.2,0,0.4,0.1,0.6c0.1,0.3,0.2,0.6,0.3,0.8c0.5,0.9,1.4,1.4,2.5,1.4
		c1,0,1.9-0.5,2.4-1.4c0.1-0.1,0.1-0.2,0.2-0.3c0,0,0-0.1,0.1-0.1c0-0.1,0.1-0.2,0.1-0.4c0-0.1,0-0.1,0-0.2c0-0.1,0-0.2,0-0.3
		c0-0.1,0-0.2,0-0.3v-0.1v-10v-0.2c0,0,0-0.1,0-0.1C34.2,9.1,29.9,6,24.3,5.9z"/>
	<path class="st0" d="M62.7,17.4c0-0.2,0-0.3,0-0.5c0-0.1,0-0.2,0-0.3c0-0.1,0-0.3,0-0.4c0-0.1,0-0.1,0-0.2c0,0,0-0.1,0-0.1
		c-0.2-1.3-0.6-2.6-1.2-3.7l0,0c-0.1-0.1-0.1-0.2-0.2-0.4c-0.2-0.3-0.4-0.6-0.5-0.9c-0.1-0.1-0.1-0.2-0.2-0.3
		c-0.1-0.2-0.2-0.3-0.4-0.4C60,10,59.9,9.9,59.8,9.8c-0.1-0.1-0.2-0.3-0.4-0.4c-0.1-0.1-0.2-0.2-0.3-0.3C59,9,58.9,8.9,58.7,8.7
		c-0.1-0.1-0.2-0.2-0.4-0.3c-0.2-0.1-0.5-0.4-0.7-0.5c-0.2-0.1-0.3-0.2-0.5-0.3c-0.1-0.1-0.3-0.1-0.4-0.2c-0.2-0.1-0.3-0.2-0.5-0.3
		C56.2,7.1,56,7,55.9,7c-0.2-0.1-0.4-0.2-0.6-0.2c-0.1,0-0.1,0-0.2-0.1c-0.1,0-0.1,0-0.2-0.1c-0.3-0.1-0.6-0.2-1-0.3
		c0,0-0.1,0-0.1,0c-0.3-0.1-0.6-0.1-0.9-0.2c-0.1,0-0.2,0-0.3,0C52.4,6,52.1,6,51.9,6c-0.1,0-0.1,0-0.2,0c-0.1,0-0.2,0-0.3,0
		c-0.1,0-0.2,0-0.3,0c-0.2,0-0.5,0-0.7,0c-0.1,0-0.1,0-0.2,0c-0.3,0-0.5,0.1-0.7,0.1c-0.1,0-0.1,0-0.2,0c-4.8,0.8-8.6,4.7-9.3,9.5
		c0,0.1,0,0.1,0,0.2c0,0.1,0,0.2,0,0.3c0,0.3-0.1,0.5-0.1,0.8c0,0.1,0,0.1,0,0.2c0,0.1,0,0.1,0,0.2c0,0.1,0,0.2,0,0.3
		c0,0.2,0,0.3,0,0.5c0,0.1,0,0.2,0,0.4c0,0.1,0,0.3,0,0.4c0,0.1,0,0.2,0,0.2c0,0,0,0.1,0,0.1c0.2,1.3,0.6,2.5,1.2,3.6l0,0
		c0.1,0.1,0.2,0.3,0.2,0.4c0.1,0.1,0.1,0.2,0.2,0.3c0.2,0.3,0.3,0.5,0.5,0.8c0.1,0.1,0.2,0.2,0.3,0.3c0.1,0.1,0.2,0.3,0.4,0.4
		c0.1,0.1,0.2,0.2,0.3,0.3c0.1,0.1,0.3,0.3,0.4,0.4c0.1,0.1,0.2,0.2,0.3,0.3c0.2,0.1,0.3,0.3,0.5,0.4c0.1,0.1,0.2,0.2,0.3,0.3
		c0.2,0.2,0.5,0.3,0.7,0.5c0.1,0.1,0.2,0.1,0.3,0.2c0.2,0.1,0.4,0.2,0.6,0.3c0.1,0.1,0.2,0.1,0.4,0.2c0.2,0.1,0.4,0.2,0.6,0.3
		c0.1,0,0.2,0.1,0.3,0.1c0,0,0.1,0,0.1,0c0.3,0.1,0.6,0.2,0.9,0.3c0,0,0,0,0,0c0.3,0.1,0.7,0.1,1,0.2c0.1,0,0.2,0,0.3,0
		c0.3,0,0.5,0.1,0.8,0.1c0.1,0,0.1,0,0.2,0c0.1,0,0.2,0,0.3,0c0.1,0,0.2,0,0.3,0c0.2,0,0.4,0,0.7,0c0.1,0,0.1,0,0.2,0
		c0.3,0,0.5-0.1,0.8-0.1c0.1,0,0.1,0,0.2,0c0.2,0,0.3-0.1,0.5-0.1c0,0,0,0,0,0c2.1-0.5,4-1.5,5.5-3c0,0,0,0,0,0c0,0,0,0,0,0
		c0.8-0.7,1.4-1.6,2-2.5c0,0,0,0,0,0c0.2-0.3,0.3-0.6,0.5-0.9c0,0,0,0,0-0.1c0.4-0.9,0.7-1.8,0.8-2.8c0-0.1,0-0.2,0-0.2
		c0-0.1,0-0.2,0-0.3c0-0.3,0.1-0.5,0.1-0.8c0-0.1,0-0.1,0-0.2c0,0,0-0.1,0-0.1C62.7,17.6,62.7,17.5,62.7,17.4z M53.2,23
		c-0.1,0-0.2,0.1-0.3,0.1c-0.2,0.1-0.4,0.1-0.6,0.1c-0.1,0-0.2,0-0.3,0c-0.2,0-0.4,0-0.7,0c-0.1,0-0.1,0-0.2,0c-0.3,0-0.5,0-0.8-0.1
		c-0.1,0-0.1,0-0.2,0c-0.2,0-0.4-0.1-0.6-0.2c0,0-0.1,0-0.1,0c0,0,0,0-0.1,0c-0.3-0.1-0.5-0.2-0.7-0.3c-0.1,0-0.1-0.1-0.1-0.1
		c-0.2-0.1-0.5-0.3-0.7-0.4c0,0,0,0,0,0c-0.2-0.2-0.4-0.3-0.6-0.5c0,0-0.1-0.1-0.1-0.1c-0.2-0.2-0.4-0.4-0.5-0.6c0,0,0,0,0-0.1
		c-0.1-0.2-0.3-0.4-0.4-0.6c-0.4-0.6-0.6-1.3-0.7-2.1c0-0.1,0-0.2,0-0.3c0-0.1,0-0.3,0-0.4c0-0.1,0-0.3,0-0.4c0-0.1,0-0.1,0-0.2
		c0-0.2,0.1-0.5,0.1-0.7c0,0,0-0.1,0-0.1c0.1-0.2,0.1-0.5,0.2-0.7c0,0,0,0,0,0c0.6-1.5,1.9-2.8,3.5-3.3c0.1,0,0.2-0.1,0.3-0.1
		c0.2-0.1,0.4-0.1,0.6-0.1c0.1,0,0.2,0,0.3,0c0.2,0,0.5,0,0.7,0c0.1,0,0.1,0,0.2,0c0.3,0,0.5,0,0.8,0.1c0.1,0,0.1,0,0.2,0
		c0.3,0.1,0.6,0.1,0.9,0.3c0.2,0.1,0.4,0.2,0.7,0.3c0,0,0.1,0,0.1,0.1c0.2,0.1,0.5,0.3,0.7,0.4c0,0,0,0,0,0c0.2,0.2,0.4,0.3,0.6,0.5
		c0,0,0,0,0.1,0.1c0.2,0.2,0.4,0.4,0.5,0.6c0,0,0,0,0,0c0.2,0.2,0.3,0.5,0.4,0.7c0.3,0.6,0.5,1.2,0.6,1.9c0,0.1,0,0.3,0,0.4
		c0,0.1,0,0.2,0,0.4c0,0.2,0,0.4,0,0.5c0,0,0,0.1,0,0.1c0,0.3-0.1,0.5-0.1,0.7c0,0,0,0.1,0,0.1C56.4,20.8,55,22.4,53.2,23z"/>
	<path class="st0" d="M91.2,17.4c0-0.2,0-0.3,0-0.5c0-0.1,0-0.2,0-0.3c0-0.1,0-0.3,0-0.4c0-0.1,0-0.1,0-0.2c0,0,0-0.1,0-0.1
		c-0.2-1.3-0.6-2.6-1.2-3.7l0,0c-0.1-0.1-0.1-0.2-0.2-0.4c-0.2-0.3-0.4-0.6-0.5-0.9c-0.1-0.1-0.1-0.2-0.2-0.3
		c-0.1-0.2-0.2-0.3-0.4-0.4c-0.1-0.1-0.2-0.2-0.3-0.3c-0.1-0.1-0.2-0.3-0.4-0.4c-0.1-0.1-0.2-0.2-0.3-0.3c-0.1-0.1-0.3-0.2-0.4-0.4
		c-0.1-0.1-0.2-0.2-0.4-0.3c-0.2-0.1-0.5-0.4-0.7-0.5c-0.2-0.1-0.3-0.2-0.5-0.3c-0.1-0.1-0.3-0.1-0.4-0.2c-0.2-0.1-0.3-0.2-0.5-0.3
		C84.6,7.1,84.5,7,84.4,7c-0.2-0.1-0.4-0.2-0.6-0.2c-0.1,0-0.1,0-0.2-0.1c-0.1,0-0.1,0-0.2-0.1c-0.3-0.1-0.6-0.2-1-0.3
		c0,0-0.1,0-0.1,0c-0.3-0.1-0.6-0.1-0.9-0.2c-0.1,0-0.2,0-0.3,0C80.9,6,80.6,6,80.3,6c-0.1,0-0.1,0-0.2,0c-0.1,0-0.2,0-0.3,0
		c-0.1,0-0.2,0-0.3,0c-0.2,0-0.5,0-0.7,0c-0.1,0-0.1,0-0.2,0c-0.3,0-0.5,0.1-0.7,0.1c-0.1,0-0.1,0-0.2,0c-4.8,0.8-8.6,4.7-9.3,9.5
		c0,0.1,0,0.1,0,0.2c0,0.1,0,0.2,0,0.3c0,0.3-0.1,0.5-0.1,0.8c0,0.1,0,0.1,0,0.2c0,0.1,0,0.1,0,0.2c0,0.1,0,0.2,0,0.3
		c0,0.2,0,0.3,0,0.5c0,0.1,0,0.2,0,0.4c0,0.1,0,0.3,0,0.4c0,0.1,0,0.2,0,0.2c0,0,0,0.1,0,0.1c0.2,1.3,0.6,2.5,1.2,3.6l0,0
		c0.1,0.1,0.2,0.3,0.2,0.4c0.1,0.1,0.1,0.2,0.2,0.3c0.2,0.3,0.3,0.5,0.5,0.8c0.1,0.1,0.2,0.2,0.3,0.3c0.1,0.1,0.2,0.3,0.4,0.4
		c0.1,0.1,0.2,0.2,0.3,0.3c0.1,0.1,0.3,0.3,0.4,0.4c0.1,0.1,0.2,0.2,0.3,0.3c0.2,0.1,0.3,0.3,0.5,0.4c0.1,0.1,0.2,0.2,0.3,0.3
		c0.2,0.2,0.5,0.3,0.7,0.5c0.1,0.1,0.2,0.1,0.3,0.2c0.2,0.1,0.4,0.2,0.6,0.3c0.1,0.1,0.2,0.1,0.4,0.2c0.2,0.1,0.4,0.2,0.6,0.3
		c0.1,0,0.2,0.1,0.3,0.1c0,0,0.1,0,0.1,0c0.3,0.1,0.6,0.2,0.9,0.3c0,0,0,0,0,0c0.3,0.1,0.7,0.1,1,0.2c0.1,0,0.2,0,0.3,0
		c0.3,0,0.5,0.1,0.8,0.1c0.1,0,0.1,0,0.2,0c0.1,0,0.2,0,0.3,0c0.1,0,0.2,0,0.3,0c0.2,0,0.4,0,0.7,0c0.1,0,0.1,0,0.2,0
		c0.3,0,0.5-0.1,0.8-0.1c0.1,0,0.1,0,0.2,0c0.2,0,0.3-0.1,0.5-0.1c0,0,0,0,0,0c2.1-0.5,4-1.5,5.5-3c0,0,0,0,0,0c0,0,0,0,0,0
		c0.8-0.7,1.4-1.6,2-2.5c0,0,0,0,0,0c0.2-0.3,0.3-0.6,0.5-0.9c0,0,0,0,0-0.1c0.4-0.9,0.7-1.8,0.8-2.8c0-0.1,0-0.2,0-0.2
		c0-0.1,0-0.2,0-0.3c0-0.3,0.1-0.5,0.1-0.8c0-0.1,0-0.1,0-0.2c0,0,0-0.1,0-0.1C91.2,17.6,91.2,17.5,91.2,17.4z M81.7,23
		c-0.1,0-0.2,0.1-0.3,0.1c-0.2,0.1-0.4,0.1-0.6,0.1c-0.1,0-0.2,0-0.3,0c-0.2,0-0.4,0-0.7,0c-0.1,0-0.1,0-0.2,0c-0.3,0-0.5,0-0.8-0.1
		c-0.1,0-0.1,0-0.2,0c-0.2,0-0.4-0.1-0.6-0.2c0,0-0.1,0-0.1,0c0,0,0,0-0.1,0c-0.3-0.1-0.5-0.2-0.7-0.3c-0.1,0-0.1-0.1-0.1-0.1
		c-0.2-0.1-0.5-0.3-0.7-0.4c0,0,0,0,0,0c-0.2-0.2-0.4-0.3-0.6-0.5c0,0-0.1-0.1-0.1-0.1c-0.2-0.2-0.4-0.4-0.5-0.6c0,0,0,0,0-0.1
		c-0.1-0.2-0.3-0.4-0.4-0.6c-0.4-0.6-0.6-1.3-0.7-2.1c0-0.1,0-0.2,0-0.3c0-0.1,0-0.3,0-0.4c0-0.1,0-0.3,0-0.4c0-0.1,0-0.1,0-0.2
		c0-0.2,0.1-0.5,0.1-0.7c0,0,0-0.1,0-0.1c0.1-0.2,0.1-0.5,0.2-0.7c0,0,0,0,0,0c0.6-1.5,1.9-2.8,3.5-3.3c0.1,0,0.2-0.1,0.3-0.1
		c0.2-0.1,0.4-0.1,0.6-0.1c0.1,0,0.2,0,0.3,0c0.2,0,0.5,0,0.7,0c0.1,0,0.1,0,0.2,0c0.3,0,0.5,0,0.8,0.1c0.1,0,0.1,0,0.2,0
		c0.3,0.1,0.6,0.1,0.9,0.3c0.2,0.1,0.4,0.2,0.7,0.3c0,0,0.1,0,0.1,0.1c0.2,0.1,0.5,0.3,0.7,0.4c0,0,0,0,0,0c0.2,0.2,0.4,0.3,0.6,0.5
		c0,0,0,0,0.1,0.1c0.2,0.2,0.4,0.4,0.5,0.6c0,0,0,0,0,0c0.2,0.2,0.3,0.5,0.4,0.7c0.3,0.6,0.5,1.2,0.6,1.9c0,0.1,0,0.3,0,0.4
		c0,0.1,0,0.2,0,0.4c0,0.2,0,0.4,0,0.5c0,0,0,0.1,0,0.1c0,0.3-0.1,0.5-0.1,0.7c0,0,0,0.1,0,0.1C84.9,20.8,83.5,22.4,81.7,23z"/>
	<path class="st0" d="M116.4,9.9c0.6-1.4-0.1-3-1.5-3.6c-1.4-0.6-3,0.1-3.6,1.5l-4.9,11.8l-4.9-11.9c-0.6-1.4-2.2-2.1-3.6-1.5
		c-1.4,0.6-2.1,2.2-1.5,3.6l7.3,17.5c0.1,0.9,0.7,1.8,1.7,2.2c1.3,0.5,2.7,0,3.4-1.1c0.2-0.2,0.3-0.5,0.4-0.8L116.4,9.9z"/>
</g>
</svg>
